{
	"asset":{
		"generator":"Khronos glTF Blender I/O v5.0.21",
		"version":"2.0"
	},
	"extensionsUsed":[
		"KHR_materials_clearcoat",
		"KHR_materials_specular"
	],
	"scene":0,
	"scenes":[
		{
			"name":"Scene",
			"nodes":[
				15,
				16,
				17
			]
		}
	],
	"nodes":[
		{
			"mesh":0,
			"name":"box"
		},
		{
			"mesh":1,
			"name":"Chest-Body-Details_Material.001_0"
		},
		{
			"children":[
				1
			],
			"name":"Chest-Body-Details",
			"translation":[
				-0.014700538478791714,
				0,
				0.07209109514951706
			]
		},
		{
			"name":"Chest-Head-Details",
			"translation":[
				-1.029626488685608,
				0,
				0.42303240299224854
			]
		},
		{
			"name":"Chest-Head-Hasp",
			"translation":[
				-2.0418953895568848,
				1.821053956518881e-05,
				0.2987474203109741
			]
		},
		{
			"name":"Chest-Head-Shackle",
			"translation":[
				-2.0311431884765625,
				0,
				0.33438265323638916
			]
		},
		{
			"mesh":2,
			"name":"Chest-Head_Material.001_0",
			"rotation":[
				0,
				0.00024136327556334436,
				0,
				1
			]
		},
		{
			"children":[
				3,
				4,
				5,
				6
			],
			"name":"Chest-Head",
			"translation":[
				1.0301237106323242,
				0,
				1.0616600513458252
			]
		},
		{
			"mesh":3,
			"name":"Padlock-Body_Material.001_0"
		},
		{
			"mesh":4,
			"name":"Padlock-Shackle_Material.001_0"
		},
		{
			"children":[
				9
			],
			"name":"Padlock-Shackle",
			"translation":[
				0.002778768539428711,
				0.009281682781875134,
				0.2288130521774292
			]
		},
		{
			"children":[
				8,
				10
			],
			"name":"Padlock-Body",
			"translation":[
				-1.1333154439926147,
				0,
				0.6690161824226379
			]
		},
		{
			"children":[
				0,
				2,
				7,
				11
			],
			"name":"Chest-Body",
			"rotation":[
				-0.7071069478988647,
				0,
				0,
				0.7071065902709961
			],
			"scale":[
				0.8000000715255737,
				0.7999998331069946,
				0.7999998331069946
			],
			"translation":[
				0.0009403768926858902,
				0.7087324261665344,
				0
			]
		},
		{
			"children":[
				12
			],
			"name":"RootNode"
		},
		{
			"children":[
				13
			],
			"name":"ff01b3cd24db4afca59fe73f5ff12851.fbx",
			"rotation":[
				0.70710688829422,
				0,
				0,
				0.7071066498756409
			],
			"scale":[
				0.009999997913837433,
				0.009999998845160007,
				0.009999998845160007
			]
		},
		{
			"children":[
				14
			],
			"name":"Sketchfab_model",
			"rotation":[
				-0.7071070671081543,
				0,
				0,
				0.7071065306663513
			],
			"scale":[
				63.04978561401367,
				63.0497932434082,
				63.0497932434082
			],
			"translation":[
				0,
				0,
				-0.4417572021484375
			]
		},
		{
			"name":"couvercle",
			"translation":[
				0,
				0,
				-0.4417572021484375
			]
		},
		{
			"mesh":5,
			"name":"Sphere_Material.001_0.002",
			"rotation":[
				-0.70710688829422,
				0,
				0,
				0.7071066498756409
			],
			"scale":[
				0.4200000762939453,
				0.4199999272823334,
				0.4199999272823334
			],
			"translation":[
				-0.026430655270814896,
				0.5678474307060242,
				-0.4177858233451843
			]
		}
	],
	"animations":[
		{
			"channels":[
				{
					"sampler":0,
					"target":{
						"node":17,
						"path":"translation"
					}
				},
				{
					"sampler":1,
					"target":{
						"node":17,
						"path":"rotation"
					}
				},
				{
					"sampler":2,
					"target":{
						"node":6,
						"path":"rotation"
					}
				}
			],
			"name":"Scene",
			"samplers":[
				{
					"input":24,
					"interpolation":"LINEAR",
					"output":25
				},
				{
					"input":26,
					"interpolation":"STEP",
					"output":27
				},
				{
					"input":24,
					"interpolation":"LINEAR",
					"output":28
				}
			]
		}
	],
	"materials":[
		{
			"doubleSided":true,
			"extensions":{
				"KHR_materials_clearcoat":{
					"clearcoatFactor":0.3337152898311615,
					"clearcoatRoughnessFactor":0.03999999910593033,
					"clearcoatTexture":{
						"index":0
					}
				},
				"KHR_materials_specular":{
					"specularColorTexture":{
						"index":1
					}
				}
			},
			"name":"Material.006",
			"pbrMetallicRoughness":{
				"baseColorTexture":{
					"index":2
				},
				"metallicFactor":0.0045714424923062325,
				"roughnessFactor":0.3276200592517853
			}
		},
		{
			"doubleSided":true,
			"name":"Material.005",
			"normalTexture":{
				"index":3
			},
			"pbrMetallicRoughness":{
				"baseColorTexture":{
					"index":4
				},
				"metallicRoughnessTexture":{
					"index":5
				},
				"roughnessFactor":0.9198161959648132
			}
		}
	],
	"meshes":[
		{
			"name":"Chest-Body_Material.001_0.002",
			"primitives":[
				{
					"attributes":{
						"POSITION":0,
						"NORMAL":1,
						"TEXCOORD_0":2
					},
					"indices":3,
					"material":0
				}
			]
		},
		{
			"name":"Chest-Body-Details_Material.001_0.002",
			"primitives":[
				{
					"attributes":{
						"POSITION":4,
						"NORMAL":5,
						"TEXCOORD_0":6
					},
					"indices":7,
					"material":0
				}
			]
		},
		{
			"name":"Chest-Head_Material.001_0.002",
			"primitives":[
				{
					"attributes":{
						"POSITION":8,
						"NORMAL":9,
						"TEXCOORD_0":10
					},
					"indices":11,
					"material":0
				}
			]
		},
		{
			"name":"Padlock-Body_Material.001_0.002",
			"primitives":[
				{
					"attributes":{
						"POSITION":12,
						"NORMAL":13,
						"TEXCOORD_0":14
					},
					"indices":15,
					"material":0
				}
			]
		},
		{
			"name":"Padlock-Shackle_Material.001_0.002",
			"primitives":[
				{
					"attributes":{
						"POSITION":16,
						"NORMAL":17,
						"TEXCOORD_0":18
					},
					"indices":19,
					"material":0
				}
			]
		},
		{
			"name":"Sphere_Material.001_0.003",
			"primitives":[
				{
					"attributes":{
						"POSITION":20,
						"NORMAL":21,
						"TEXCOORD_0":22
					},
					"indices":23,
					"material":1
				}
			]
		}
	],
	"textures":[
		{
			"sampler":0,
			"source":0
		},
		{
			"sampler":0,
			"source":1
		},
		{
			"sampler":0,
			"source":2
		},
		{
			"sampler":0,
			"source":3
		},
		{
			"sampler":0,
			"source":4
		},
		{
			"sampler":0,
			"source":5
		}
	],
	"images":[
		{
			"mimeType":"image/png",
			"name":"Material",
			"uri":"treasure/Material.png"
		},
		{
			"mimeType":"image/png",
			"name":"Image",
			"uri":"treasure/Image.png"
		},
		{
			"mimeType":"image/jpeg",
			"name":"Material.001_baseColor",
			"uri":"treasure/Material.001_baseColor.jpg"
		},
		{
			"mimeType":"image/png",
			"name":"Material",
			"uri":"treasure/Material-1.png"
		},
		{
			"mimeType":"image/png",
			"name":"Material",
			"uri":"treasure/Material-2.png"
		},
		{
			"mimeType":"image/png",
			"name":"Material",
			"uri":"treasure/Material-3.png"
		}
	],
	"accessors":[
		{
			"bufferView":0,
			"componentType":5126,
			"count":1276,
			"max":[
				1.0614237785339355,
				1.8125990629196167,
				1.071843147277832
			],
			"min":[
				-1.181506633758545,
				-1.8125993013381958,
				-0.8484962582588196
			],
			"type":"VEC3"
		},
		{
			"bufferView":1,
			"componentType":5126,
			"count":1276,
			"type":"VEC3"
		},
		{
			"bufferView":2,
			"componentType":5126,
			"count":1276,
			"type":"VEC2"
		},
		{
			"bufferView":3,
			"componentType":5123,
			"count":3492,
			"type":"SCALAR"
		},
		{
			"bufferView":4,
			"componentType":5126,
			"count":520,
			"max":[
				1.0967833995819092,
				0.874570906162262,
				0.8623853921890259
			],
			"min":[
				-1.088718295097351,
				-0.8745710253715515,
				-0.8643410205841064
			],
			"type":"VEC3"
		},
		{
			"bufferView":5,
			"componentType":5126,
			"count":520,
			"type":"VEC3"
		},
		{
			"bufferView":6,
			"componentType":5126,
			"count":520,
			"type":"VEC2"
		},
		{
			"bufferView":7,
			"componentType":5123,
			"count":1488,
			"type":"SCALAR"
		},
		{
			"bufferView":8,
			"componentType":5126,
			"count":2497,
			"max":[
				0.051362037658691406,
				1.8125991821289062,
				1.1325883865356445
			],
			"min":[
				-2.1442620754241943,
				-1.8125991821289062,
				-0.16690069437026978
			],
			"type":"VEC3"
		},
		{
			"bufferView":9,
			"componentType":5126,
			"count":2497,
			"type":"VEC3"
		},
		{
			"bufferView":10,
			"componentType":5126,
			"count":2497,
			"type":"VEC2"
		},
		{
			"bufferView":11,
			"componentType":5123,
			"count":7320,
			"type":"SCALAR"
		},
		{
			"bufferView":12,
			"componentType":5126,
			"count":496,
			"max":[
				0.049744706600904465,
				0.1820346862077713,
				0.12576450407505035
			],
			"min":[
				-0.04974471777677536,
				-0.1820346862077713,
				-0.1408870369195938
			],
			"type":"VEC3"
		},
		{
			"bufferView":13,
			"componentType":5126,
			"count":496,
			"type":"VEC3"
		},
		{
			"bufferView":14,
			"componentType":5126,
			"count":496,
			"type":"VEC2"
		},
		{
			"bufferView":15,
			"componentType":5123,
			"count":816,
			"type":"SCALAR"
		},
		{
			"bufferView":16,
			"componentType":5126,
			"count":378,
			"max":[
				0.021414417773485184,
				0.13909812271595,
				0.11556631326675415
			],
			"min":[
				-0.021414417773485184,
				-0.15763288736343384,
				-0.15399174392223358
			],
			"type":"VEC3"
		},
		{
			"bufferView":17,
			"componentType":5126,
			"count":378,
			"type":"VEC3"
		},
		{
			"bufferView":18,
			"componentType":5126,
			"count":378,
			"type":"VEC2"
		},
		{
			"bufferView":19,
			"componentType":5123,
			"count":1716,
			"type":"SCALAR"
		},
		{
			"bufferView":20,
			"componentType":5126,
			"count":133244,
			"max":[
				1.0000072717666626,
				1,
				1
			],
			"min":[
				-1.0000118017196655,
				-1.0000144243240356,
				-1
			],
			"type":"VEC3"
		},
		{
			"bufferView":21,
			"componentType":5126,
			"count":133244,
			"type":"VEC3"
		},
		{
			"bufferView":22,
			"componentType":5126,
			"count":133244,
			"type":"VEC2"
		},
		{
			"bufferView":23,
			"componentType":5125,
			"count":783360,
			"type":"SCALAR"
		},
		{
			"bufferView":24,
			"componentType":5126,
			"count":250,
			"max":[
				10.416666666666666
			],
			"min":[
				0.041666666666666664
			],
			"type":"SCALAR"
		},
		{
			"bufferView":25,
			"componentType":5126,
			"count":250,
			"type":"VEC3"
		},
		{
			"bufferView":26,
			"componentType":5126,
			"count":2,
			"max":[
				10.416666666666666
			],
			"min":[
				0.041666666666666664
			],
			"type":"SCALAR"
		},
		{
			"bufferView":27,
			"componentType":5126,
			"count":2,
			"type":"VEC4"
		},
		{
			"bufferView":28,
			"componentType":5126,
			"count":250,
			"type":"VEC4"
		}
	],
	"bufferViews":[
		{
			"buffer":0,
			"byteLength":15312,
			"byteOffset":0,
			"target":34962
		},
		{
			"buffer":0,
			"byteLength":15312,
			"byteOffset":15312,
			"target":34962
		},
		{
			"buffer":0,
			"byteLength":10208,
			"byteOffset":30624,
			"target":34962
		},
		{
			"buffer":0,
			"byteLength":6984,
			"byteOffset":40832,
			"target":34963
		},
		{
			"buffer":0,
			"byteLength":6240,
			"byteOffset":47816,
			"target":34962
		},
		{
			"buffer":0,
			"byteLength":6240,
			"byteOffset":54056,
			"target":34962
		},
		{
			"buffer":0,
			"byteLength":4160,
			"byteOffset":60296,
			"target":34962
		},
		{
			"buffer":0,
			"byteLength":2976,
			"byteOffset":64456,
			"target":34963
		},
		{
			"buffer":0,
			"byteLength":29964,
			"byteOffset":67432,
			"target":34962
		},
		{
			"buffer":0,
			"byteLength":29964,
			"byteOffset":97396,
			"target":34962
		},
		{
			"buffer":0,
			"byteLength":19976,
			"byteOffset":127360,
			"target":34962
		},
		{
			"buffer":0,
			"byteLength":14640,
			"byteOffset":147336,
			"target":34963
		},
		{
			"buffer":0,
			"byteLength":5952,
			"byteOffset":161976,
			"target":34962
		},
		{
			"buffer":0,
			"byteLength":5952,
			"byteOffset":167928,
			"target":34962
		},
		{
			"buffer":0,
			"byteLength":3968,
			"byteOffset":173880,
			"target":34962
		},
		{
			"buffer":0,
			"byteLength":1632,
			"byteOffset":177848,
			"target":34963
		},
		{
			"buffer":0,
			"byteLength":4536,
			"byteOffset":179480,
			"target":34962
		},
		{
			"buffer":0,
			"byteLength":4536,
			"byteOffset":184016,
			"target":34962
		},
		{
			"buffer":0,
			"byteLength":3024,
			"byteOffset":188552,
			"target":34962
		},
		{
			"buffer":0,
			"byteLength":3432,
			"byteOffset":191576,
			"target":34963
		},
		{
			"buffer":0,
			"byteLength":1598928,
			"byteOffset":195008,
			"target":34962
		},
		{
			"buffer":0,
			"byteLength":1598928,
			"byteOffset":1793936,
			"target":34962
		},
		{
			"buffer":0,
			"byteLength":1065952,
			"byteOffset":3392864,
			"target":34962
		},
		{
			"buffer":0,
			"byteLength":3133440,
			"byteOffset":4458816,
			"target":34963
		},
		{
			"buffer":0,
			"byteLength":1000,
			"byteOffset":7592256
		},
		{
			"buffer":0,
			"byteLength":3000,
			"byteOffset":7593256
		},
		{
			"buffer":0,
			"byteLength":8,
			"byteOffset":7596256
		},
		{
			"buffer":0,
			"byteLength":32,
			"byteOffset":7596264
		},
		{
			"buffer":0,
			"byteLength":4000,
			"byteOffset":7596296
		}
	],
	"samplers":[
		{
			"magFilter":9729,
			"minFilter":9987
		}
	],
	"buffers":[
		{
			"byteLength":7600296,
			"uri":"tresor.bin"
		}
	]
}
